# xmcd
#
# Track frame offsets: 
#        150
#        16220
#        27165
#        42850
#        58262
#        76552
#        92285
#        107377
#        124052
#        137077
#        156017
#        177205
#        193312
#        213237
#        230465
#        250587
#
# Disc length: 3612 seconds
#
# Revision: 0
# Processed by: cddbd v1.5.2PL0 Copyright (c) Steve Scherf et al.
# Submitted via: ExactAudioCopy v1.0b3
#
DISCID=bf0e1a10
DTITLE=New Leon Grand Orchestra - Poetry of four seasons
DYEAR=1900
DGENRE=Country
TTITLE0=today
TTITLE1=rain
TTITLE2=annie's song
TTITLE3=unchanged melody
TTITLE4=rainy days and mondays
TTITLE5=lovin' you
TTITLE6=yesterday when i was young
TTITLE7=wooden heart
TTITLE8=put your head on my shoulder
TTITLE9=sometimes when we touch
TTITLE10=how can i tell her
TTITLE11=reflection of my life
TTITLE12=windflowers
TTITLE13=the windmills of your mind
TTITLE14=if you go away
TTITLE15=honey
EXTD=
EXTT0=
EXTT1=
EXTT2=
EXTT3=
EXTT4=
EXTT5=
EXTT6=
EXTT7=
EXTT8=
EXTT9=
EXTT10=
EXTT11=
EXTT12=
EXTT13=
EXTT14=
EXTT15=
PLAYORDER=
